<mxfile host="app.diagrams.net" agent="Mozilla/5.0 (Windows NT 10.0; Win64; x64) AppleWebKit/537.36 (KHTML, like Gecko) Chrome/134.0.0.0 Safari/537.36" version="26.1.1" pages="6">
  <diagram id="tlyybE4BkG_wdko4cps3" name="MyceliumGrowthCommGeneral">
    <mxGraphModel dx="1702" dy="435" grid="1" gridSize="10" guides="1" tooltips="1" connect="1" arrows="1" fold="1" page="1" pageScale="1" pageWidth="827" pageHeight="1169" math="0" shadow="0">
      <root>
        <mxCell id="0" />
        <mxCell id="1" parent="0" />
        <mxCell id="zU8KNHn8lU-i58dNoDQ4-1" value="b: &lt;span style=&quot;background-color: transparent; color: light-dark(rgb(0, 0, 0), rgb(255, 255, 255));&quot;&gt;Tecton&lt;/span&gt;" style="html=1;whiteSpace=wrap;" parent="1" vertex="1">
          <mxGeometry x="-30" y="320" width="120" height="40" as="geometry" />
        </mxCell>
        <mxCell id="zU8KNHn8lU-i58dNoDQ4-2" value="a: Tecton" style="html=1;whiteSpace=wrap;" parent="1" vertex="1">
          <mxGeometry x="300" y="320" width="120" height="40" as="geometry" />
        </mxCell>
        <mxCell id="zU8KNHn8lU-i58dNoDQ4-3" value="m: Mycelium" style="html=1;whiteSpace=wrap;" parent="1" vertex="1">
          <mxGeometry x="400" y="80" width="120" height="40" as="geometry" />
        </mxCell>
        <mxCell id="zU8KNHn8lU-i58dNoDQ4-4" value="" style="endArrow=none;html=1;rounded=0;exitX=0.5;exitY=0;exitDx=0;exitDy=0;entryX=0.25;entryY=1;entryDx=0;entryDy=0;" parent="1" source="zU8KNHn8lU-i58dNoDQ4-1" edge="1">
          <mxGeometry width="50" height="50" relative="1" as="geometry">
            <mxPoint x="110" y="170" as="sourcePoint" />
            <mxPoint x="140" y="120" as="targetPoint" />
          </mxGeometry>
        </mxCell>
        <mxCell id="zU8KNHn8lU-i58dNoDQ4-5" value="" style="endArrow=none;html=1;rounded=0;entryX=0.75;entryY=1;entryDx=0;entryDy=0;exitX=0.5;exitY=0;exitDx=0;exitDy=0;" parent="1" source="zU8KNHn8lU-i58dNoDQ4-2" edge="1">
          <mxGeometry width="50" height="50" relative="1" as="geometry">
            <mxPoint x="130" y="170" as="sourcePoint" />
            <mxPoint x="200" y="120" as="targetPoint" />
          </mxGeometry>
        </mxCell>
        <mxCell id="zU8KNHn8lU-i58dNoDQ4-6" value="" style="endArrow=none;html=1;rounded=0;entryX=1;entryY=0.75;entryDx=0;entryDy=0;exitX=0;exitY=0.75;exitDx=0;exitDy=0;" parent="1" source="zU8KNHn8lU-i58dNoDQ4-3" edge="1">
          <mxGeometry width="50" height="50" relative="1" as="geometry">
            <mxPoint x="170" y="170" as="sourcePoint" />
            <mxPoint x="230" y="110" as="targetPoint" />
          </mxGeometry>
        </mxCell>
        <mxCell id="zU8KNHn8lU-i58dNoDQ4-7" value="" style="endArrow=classic;html=1;rounded=0;dashed=1;" parent="1" edge="1">
          <mxGeometry width="50" height="50" relative="1" as="geometry">
            <mxPoint x="120" y="130" as="sourcePoint" />
            <mxPoint x="80" y="190" as="targetPoint" />
          </mxGeometry>
        </mxCell>
        <mxCell id="zU8KNHn8lU-i58dNoDQ4-8" value="" style="endArrow=classic;html=1;rounded=0;" parent="1" edge="1">
          <mxGeometry width="50" height="50" relative="1" as="geometry">
            <mxPoint x="80" y="200" as="sourcePoint" />
            <mxPoint x="50" y="250" as="targetPoint" />
          </mxGeometry>
        </mxCell>
        <mxCell id="zU8KNHn8lU-i58dNoDQ4-9" value="1. &amp;lt;&amp;lt;create&amp;gt;&amp;gt;" style="text;html=1;align=center;verticalAlign=middle;resizable=0;points=[];autosize=1;strokeColor=none;fillColor=none;" parent="1" vertex="1">
          <mxGeometry y="140" width="100" height="30" as="geometry" />
        </mxCell>
        <mxCell id="zU8KNHn8lU-i58dNoDQ4-10" value="" style="endArrow=none;html=1;rounded=0;exitX=1;exitY=0.5;exitDx=0;exitDy=0;entryX=0;entryY=0.5;entryDx=0;entryDy=0;" parent="1" source="zU8KNHn8lU-i58dNoDQ4-1" target="zU8KNHn8lU-i58dNoDQ4-2" edge="1">
          <mxGeometry width="50" height="50" relative="1" as="geometry">
            <mxPoint x="150" y="270" as="sourcePoint" />
            <mxPoint x="200" y="220" as="targetPoint" />
          </mxGeometry>
        </mxCell>
        <mxCell id="zU8KNHn8lU-i58dNoDQ4-11" value="&lt;span style=&quot;background-color: light-dark(rgb(255, 255, 255), rgb(31, 31, 0));&quot;&gt;3. addNeighbour(a)&lt;/span&gt;" style="text;html=1;align=center;verticalAlign=middle;resizable=0;points=[];autosize=1;strokeColor=none;fillColor=none;" parent="1" vertex="1">
          <mxGeometry x="-70" y="200" width="130" height="30" as="geometry" />
        </mxCell>
        <mxCell id="zU8KNHn8lU-i58dNoDQ4-12" value="" style="endArrow=classic;html=1;rounded=0;dashed=1;" parent="1" edge="1">
          <mxGeometry width="50" height="50" relative="1" as="geometry">
            <mxPoint x="220" y="130" as="sourcePoint" />
            <mxPoint x="270" y="190" as="targetPoint" />
          </mxGeometry>
        </mxCell>
        <mxCell id="zU8KNHn8lU-i58dNoDQ4-13" value="" style="endArrow=classic;html=1;rounded=0;" parent="1" edge="1">
          <mxGeometry width="50" height="50" relative="1" as="geometry">
            <mxPoint x="280" y="200" as="sourcePoint" />
            <mxPoint x="310" y="240" as="targetPoint" />
          </mxGeometry>
        </mxCell>
        <mxCell id="zU8KNHn8lU-i58dNoDQ4-14" value="&amp;nbsp;2.&amp;lt;&amp;lt;create&amp;gt;&amp;gt;" style="text;html=1;align=center;verticalAlign=middle;resizable=0;points=[];autosize=1;strokeColor=none;fillColor=none;" parent="1" vertex="1">
          <mxGeometry x="240" y="140" width="100" height="30" as="geometry" />
        </mxCell>
        <mxCell id="zU8KNHn8lU-i58dNoDQ4-15" value="&lt;span style=&quot;background-color: light-dark(rgb(255, 255, 255), rgb(237, 237, 237));&quot;&gt;4. addNeighbour(b)&lt;/span&gt;" style="text;html=1;align=center;verticalAlign=middle;resizable=0;points=[];autosize=1;strokeColor=none;fillColor=none;" parent="1" vertex="1">
          <mxGeometry x="284" y="200" width="130" height="30" as="geometry" />
        </mxCell>
        <mxCell id="zU8KNHn8lU-i58dNoDQ4-16" value="" style="endArrow=classic;html=1;rounded=0;dashed=1;entryX=0.904;entryY=0.995;entryDx=0;entryDy=0;entryPerimeter=0;exitX=0.09;exitY=0.979;exitDx=0;exitDy=0;exitPerimeter=0;" parent="1" edge="1" target="zU8KNHn8lU-i58dNoDQ4-17" source="zU8KNHn8lU-i58dNoDQ4-17">
          <mxGeometry width="50" height="50" relative="1" as="geometry">
            <mxPoint x="232" y="105" as="sourcePoint" />
            <mxPoint x="310" y="105" as="targetPoint" />
          </mxGeometry>
        </mxCell>
        <mxCell id="zU8KNHn8lU-i58dNoDQ4-17" value="5. &amp;lt;&amp;lt;create&amp;gt;&amp;gt;" style="text;html=1;align=center;verticalAlign=middle;resizable=0;points=[];autosize=1;strokeColor=none;fillColor=none;" parent="1" vertex="1">
          <mxGeometry x="220" y="70" width="100" height="30" as="geometry" />
        </mxCell>
        <mxCell id="zU8KNHn8lU-i58dNoDQ4-18" value="" style="endArrow=none;html=1;rounded=0;exitX=0.901;exitY=0.002;exitDx=0;exitDy=0;entryX=0.5;entryY=1;entryDx=0;entryDy=0;exitPerimeter=0;" parent="1" source="zU8KNHn8lU-i58dNoDQ4-2" target="zU8KNHn8lU-i58dNoDQ4-3" edge="1">
          <mxGeometry width="50" height="50" relative="1" as="geometry">
            <mxPoint x="320" y="220" as="sourcePoint" />
            <mxPoint x="370" y="170" as="targetPoint" />
          </mxGeometry>
        </mxCell>
        <mxCell id="zU8KNHn8lU-i58dNoDQ4-19" value="" style="endArrow=classic;html=1;rounded=0;" parent="1" edge="1">
          <mxGeometry width="50" height="50" relative="1" as="geometry">
            <mxPoint x="320" y="250" as="sourcePoint" />
            <mxPoint x="360" y="300" as="targetPoint" />
          </mxGeometry>
        </mxCell>
        <mxCell id="zU8KNHn8lU-i58dNoDQ4-20" value="&lt;span&gt;6. set&lt;span style=&quot;color: light-dark(rgb(0, 0, 0), rgb(255, 255, 255));&quot;&gt;Mycelium(m)&lt;/span&gt;&lt;/span&gt;" style="text;html=1;align=center;verticalAlign=middle;resizable=0;points=[];autosize=1;strokeColor=none;fillColor=none;" parent="1" vertex="1">
          <mxGeometry x="200" y="250" width="120" height="30" as="geometry" />
        </mxCell>
        <mxCell id="zU8KNHn8lU-i58dNoDQ4-30" value="" style="endArrow=classic;html=1;rounded=0;" parent="1" edge="1">
          <mxGeometry width="50" height="50" relative="1" as="geometry">
            <mxPoint x="330" y="88" as="sourcePoint" />
            <mxPoint x="390" y="88" as="targetPoint" />
          </mxGeometry>
        </mxCell>
        <mxCell id="zU8KNHn8lU-i58dNoDQ4-31" value="7.setLocation(a)" style="text;html=1;align=center;verticalAlign=middle;resizable=0;points=[];autosize=1;strokeColor=none;fillColor=none;" parent="1" vertex="1">
          <mxGeometry x="302" y="57" width="110" height="30" as="geometry" />
        </mxCell>
        <mxCell id="zU8KNHn8lU-i58dNoDQ4-32" value="Tester" style="shape=umlActor;verticalLabelPosition=bottom;verticalAlign=top;html=1;" parent="1" vertex="1">
          <mxGeometry x="150" y="53" width="40" height="85" as="geometry" />
        </mxCell>
      </root>
    </mxGraphModel>
  </diagram>
  <diagram id="MyoBwxHr3BlwVoJGL-YU" name="UseCase1Seq">
    <mxGraphModel dx="1615" dy="803" grid="1" gridSize="10" guides="1" tooltips="1" connect="1" arrows="1" fold="1" page="1" pageScale="1" pageWidth="827" pageHeight="1169" math="0" shadow="0">
      <root>
        <mxCell id="0" />
        <mxCell id="1" parent="0" />
        <mxCell id="hNV3BdEV9gngSriqMlNY-2" value="" style="shape=umlLifeline;perimeter=lifelinePerimeter;whiteSpace=wrap;html=1;container=1;dropTarget=0;collapsible=0;recursiveResize=0;outlineConnect=0;portConstraint=eastwest;newEdgeStyle={&quot;curved&quot;:0,&quot;rounded&quot;:0};size=0;" vertex="1" parent="1">
          <mxGeometry x="10" y="130" width="100" height="470" as="geometry" />
        </mxCell>
        <mxCell id="hNV3BdEV9gngSriqMlNY-3" value="" style="html=1;points=[[0,0,0,0,5],[0,1,0,0,-5],[1,0,0,0,5],[1,1,0,0,-5]];perimeter=orthogonalPerimeter;outlineConnect=0;targetShapes=umlLifeline;portConstraint=eastwest;newEdgeStyle={&quot;curved&quot;:0,&quot;rounded&quot;:0};" vertex="1" parent="hNV3BdEV9gngSriqMlNY-2">
          <mxGeometry x="45" y="10" width="10" height="430" as="geometry" />
        </mxCell>
        <mxCell id="hNV3BdEV9gngSriqMlNY-4" value="&lt;span style=&quot;background-color: rgb(255, 255, 51);&quot;&gt;Controller&lt;/span&gt;" style="shape=umlActor;verticalLabelPosition=bottom;verticalAlign=top;html=1;" vertex="1" parent="1">
          <mxGeometry x="45" y="40" width="30" height="60" as="geometry" />
        </mxCell>
        <mxCell id="hNV3BdEV9gngSriqMlNY-5" value="m: Mycelium" style="shape=umlLifeline;perimeter=lifelinePerimeter;whiteSpace=wrap;html=1;container=1;dropTarget=0;collapsible=0;recursiveResize=0;outlineConnect=0;portConstraint=eastwest;newEdgeStyle={&quot;curved&quot;:0,&quot;rounded&quot;:0};size=40;" vertex="1" parent="1">
          <mxGeometry x="260" y="135" width="120" height="465" as="geometry" />
        </mxCell>
        <mxCell id="hNV3BdEV9gngSriqMlNY-6" value="" style="html=1;points=[[0,0,0,0,5],[0,1,0,0,-5],[1,0,0,0,5],[1,1,0,0,-5]];perimeter=orthogonalPerimeter;outlineConnect=0;targetShapes=umlLifeline;portConstraint=eastwest;newEdgeStyle={&quot;curved&quot;:0,&quot;rounded&quot;:0};" vertex="1" parent="hNV3BdEV9gngSriqMlNY-5">
          <mxGeometry x="55" y="60" width="10" height="380" as="geometry" />
        </mxCell>
        <mxCell id="hNV3BdEV9gngSriqMlNY-7" value="&lt;span style=&quot;background-color: light-dark(#FFFF33,var(--ge-dark-color, #121212));&quot;&gt;Create&lt;/span&gt;" style="endArrow=open;endSize=12;dashed=1;html=1;rounded=0;" edge="1" parent="1" source="hNV3BdEV9gngSriqMlNY-3">
          <mxGeometry x="-0.0256" width="160" relative="1" as="geometry">
            <mxPoint x="70" y="150" as="sourcePoint" />
            <mxPoint x="260" y="150" as="targetPoint" />
            <mxPoint as="offset" />
          </mxGeometry>
        </mxCell>
        <mxCell id="hNV3BdEV9gngSriqMlNY-8" value="&lt;span data-end=&quot;171&quot; data-start=&quot;144&quot;&gt;mge: MyceliumGrowthEvaluator&lt;/span&gt; " style="shape=umlLifeline;perimeter=lifelinePerimeter;whiteSpace=wrap;html=1;container=1;dropTarget=0;collapsible=0;recursiveResize=0;outlineConnect=0;portConstraint=eastwest;newEdgeStyle={&quot;curved&quot;:0,&quot;rounded&quot;:0};size=40;" vertex="1" parent="1">
          <mxGeometry x="505" y="210" width="200" height="360" as="geometry" />
        </mxCell>
        <mxCell id="hNV3BdEV9gngSriqMlNY-9" value="" style="html=1;points=[[0,0,0,0,5],[0,1,0,0,-5],[1,0,0,0,5],[1,1,0,0,-5]];perimeter=orthogonalPerimeter;outlineConnect=0;targetShapes=umlLifeline;portConstraint=eastwest;newEdgeStyle={&quot;curved&quot;:0,&quot;rounded&quot;:0};" vertex="1" parent="hNV3BdEV9gngSriqMlNY-8">
          <mxGeometry x="95" y="70" width="10" height="260" as="geometry" />
        </mxCell>
        <mxCell id="hNV3BdEV9gngSriqMlNY-10" value="visit(b, &lt;span style=&quot;background-color: light-dark(#FFFF66,var(--ge-dark-color, #121212));&quot;&gt;m: mushroom&lt;/span&gt;)" style="html=1;verticalAlign=bottom;endArrow=block;curved=0;rounded=0;" edge="1" parent="1">
          <mxGeometry relative="1" as="geometry">
            <mxPoint x="325" y="290" as="sourcePoint" />
            <mxPoint x="599.9999999999998" y="290" as="targetPoint" />
          </mxGeometry>
        </mxCell>
        <mxCell id="hNV3BdEV9gngSriqMlNY-11" value="&lt;span data-end=&quot;171&quot; data-start=&quot;144&quot;&gt;b: Fertile&lt;/span&gt;Tecton" style="shape=umlLifeline;perimeter=lifelinePerimeter;whiteSpace=wrap;html=1;container=1;dropTarget=0;collapsible=0;recursiveResize=0;outlineConnect=0;portConstraint=eastwest;newEdgeStyle={&quot;curved&quot;:0,&quot;rounded&quot;:0};size=40;" vertex="1" parent="1">
          <mxGeometry x="760" y="70" width="200" height="530" as="geometry" />
        </mxCell>
        <mxCell id="hNV3BdEV9gngSriqMlNY-12" value="" style="html=1;points=[[0,0,0,0,5],[0,1,0,0,-5],[1,0,0,0,5],[1,1,0,0,-5]];perimeter=orthogonalPerimeter;outlineConnect=0;targetShapes=umlLifeline;portConstraint=eastwest;newEdgeStyle={&quot;curved&quot;:0,&quot;rounded&quot;:0};" vertex="1" parent="hNV3BdEV9gngSriqMlNY-11">
          <mxGeometry x="95" y="230" width="10" height="210" as="geometry" />
        </mxCell>
        <mxCell id="hNV3BdEV9gngSriqMlNY-13" value="accept(mge, m)" style="html=1;verticalAlign=bottom;endArrow=block;curved=0;rounded=0;" edge="1" parent="1" source="hNV3BdEV9gngSriqMlNY-9" target="hNV3BdEV9gngSriqMlNY-12">
          <mxGeometry x="-0.0023" relative="1" as="geometry">
            <mxPoint x="730" y="225" as="sourcePoint" />
            <Array as="points">
              <mxPoint x="740" y="310" />
            </Array>
            <mxPoint as="offset" />
          </mxGeometry>
        </mxCell>
        <mxCell id="hNV3BdEV9gngSriqMlNY-14" value="" style="html=1;verticalAlign=bottom;endArrow=open;dashed=1;endSize=8;curved=0;rounded=0;" edge="1" parent="1">
          <mxGeometry relative="1" as="geometry">
            <mxPoint x="609.9999999999998" y="480" as="targetPoint" />
            <mxPoint x="854.9999999999998" y="480" as="sourcePoint" />
            <Array as="points">
              <mxPoint x="730" y="480" />
            </Array>
          </mxGeometry>
        </mxCell>
        <mxCell id="hNV3BdEV9gngSriqMlNY-15" value="&lt;span style=&quot;font-family: &amp;quot;Times New Roman&amp;quot;, serif; background: rgb(255, 255, 102);&quot;&gt;&lt;font style=&quot;font-size: 12px;&quot;&gt;grow(sporeCount: int)&lt;/font&gt;&lt;/span&gt;" style="html=1;verticalAlign=bottom;endArrow=block;curved=0;rounded=0;" edge="1" parent="1">
          <mxGeometry x="-0.0356" relative="1" as="geometry">
            <mxPoint x="854.9999999999998" y="384.66" as="sourcePoint" />
            <mxPoint x="325" y="384.66" as="targetPoint" />
            <Array as="points">
              <mxPoint x="600" y="384.66" />
            </Array>
            <mxPoint as="offset" />
          </mxGeometry>
        </mxCell>
        <mxCell id="hNV3BdEV9gngSriqMlNY-16" value="" style="html=1;verticalAlign=bottom;endArrow=open;dashed=1;endSize=8;curved=0;rounded=0;" edge="1" parent="1">
          <mxGeometry relative="1" as="geometry">
            <mxPoint x="854.9999999999998" y="404.66" as="targetPoint" />
            <mxPoint x="325" y="404.66" as="sourcePoint" />
            <Array as="points">
              <mxPoint x="590" y="404.66" />
            </Array>
          </mxGeometry>
        </mxCell>
        <mxCell id="hNV3BdEV9gngSriqMlNY-17" value="" style="html=1;verticalAlign=bottom;endArrow=open;dashed=1;endSize=8;curved=0;rounded=0;" edge="1" parent="1">
          <mxGeometry relative="1" as="geometry">
            <mxPoint x="325" y="510" as="targetPoint" />
            <mxPoint x="599.9999999999998" y="510" as="sourcePoint" />
          </mxGeometry>
        </mxCell>
        <mxCell id="hNV3BdEV9gngSriqMlNY-18" value="Create" style="endArrow=open;endSize=12;dashed=1;html=1;rounded=0;" edge="1" parent="1" source="hNV3BdEV9gngSriqMlNY-6">
          <mxGeometry x="-0.0256" width="160" relative="1" as="geometry">
            <mxPoint x="322" y="230" as="sourcePoint" />
            <mxPoint x="506" y="230" as="targetPoint" />
            <mxPoint as="offset" />
          </mxGeometry>
        </mxCell>
        <mxCell id="hNV3BdEV9gngSriqMlNY-19" value="" style="shape=umlDestroy;whiteSpace=wrap;html=1;strokeWidth=3;targetShapes=umlLifeline;" vertex="1" parent="1">
          <mxGeometry x="590" y="555" width="30" height="30" as="geometry" />
        </mxCell>
      </root>
    </mxGraphModel>
  </diagram>
  <diagram id="W7GjRj8bh4cbhp_roIFn" name="UseCase2Seq">
    <mxGraphModel dx="1500" dy="746" grid="1" gridSize="10" guides="1" tooltips="1" connect="1" arrows="1" fold="1" page="1" pageScale="1" pageWidth="827" pageHeight="1169" math="0" shadow="0">
      <root>
        <mxCell id="0" />
        <mxCell id="1" parent="0" />
        <mxCell id="vdRoEUMEjn4NhNGqWxLZ-1" value="" style="shape=umlLifeline;perimeter=lifelinePerimeter;whiteSpace=wrap;html=1;container=1;dropTarget=0;collapsible=0;recursiveResize=0;outlineConnect=0;portConstraint=eastwest;newEdgeStyle={&quot;curved&quot;:0,&quot;rounded&quot;:0};size=0;" vertex="1" parent="1">
          <mxGeometry x="10" y="130" width="100" height="470" as="geometry" />
        </mxCell>
        <mxCell id="vdRoEUMEjn4NhNGqWxLZ-2" value="" style="html=1;points=[[0,0,0,0,5],[0,1,0,0,-5],[1,0,0,0,5],[1,1,0,0,-5]];perimeter=orthogonalPerimeter;outlineConnect=0;targetShapes=umlLifeline;portConstraint=eastwest;newEdgeStyle={&quot;curved&quot;:0,&quot;rounded&quot;:0};" vertex="1" parent="vdRoEUMEjn4NhNGqWxLZ-1">
          <mxGeometry x="45" y="10" width="10" height="430" as="geometry" />
        </mxCell>
        <mxCell id="vdRoEUMEjn4NhNGqWxLZ-3" value="&lt;span style=&quot;background-color: rgb(255, 255, 51);&quot;&gt;Controller&lt;/span&gt;" style="shape=umlActor;verticalLabelPosition=bottom;verticalAlign=top;html=1;" vertex="1" parent="1">
          <mxGeometry x="45" y="40" width="30" height="60" as="geometry" />
        </mxCell>
        <mxCell id="vdRoEUMEjn4NhNGqWxLZ-4" value="m: Mycelium" style="shape=umlLifeline;perimeter=lifelinePerimeter;whiteSpace=wrap;html=1;container=1;dropTarget=0;collapsible=0;recursiveResize=0;outlineConnect=0;portConstraint=eastwest;newEdgeStyle={&quot;curved&quot;:0,&quot;rounded&quot;:0};size=40;" vertex="1" parent="1">
          <mxGeometry x="260" y="135" width="120" height="465" as="geometry" />
        </mxCell>
        <mxCell id="vdRoEUMEjn4NhNGqWxLZ-5" value="" style="html=1;points=[[0,0,0,0,5],[0,1,0,0,-5],[1,0,0,0,5],[1,1,0,0,-5]];perimeter=orthogonalPerimeter;outlineConnect=0;targetShapes=umlLifeline;portConstraint=eastwest;newEdgeStyle={&quot;curved&quot;:0,&quot;rounded&quot;:0};" vertex="1" parent="vdRoEUMEjn4NhNGqWxLZ-4">
          <mxGeometry x="55" y="60" width="10" height="380" as="geometry" />
        </mxCell>
        <mxCell id="vdRoEUMEjn4NhNGqWxLZ-6" value="&lt;span style=&quot;background-color: light-dark(#FFFF33,var(--ge-dark-color, #121212));&quot;&gt;Create&lt;/span&gt;" style="endArrow=open;endSize=12;dashed=1;html=1;rounded=0;" edge="1" parent="1" source="vdRoEUMEjn4NhNGqWxLZ-2">
          <mxGeometry x="-0.0256" width="160" relative="1" as="geometry">
            <mxPoint x="70" y="150" as="sourcePoint" />
            <mxPoint x="260" y="150" as="targetPoint" />
            <mxPoint as="offset" />
          </mxGeometry>
        </mxCell>
        <mxCell id="vdRoEUMEjn4NhNGqWxLZ-7" value="&lt;span data-end=&quot;171&quot; data-start=&quot;144&quot;&gt;mge: MyceliumGrowthEvaluator&lt;/span&gt; " style="shape=umlLifeline;perimeter=lifelinePerimeter;whiteSpace=wrap;html=1;container=1;dropTarget=0;collapsible=0;recursiveResize=0;outlineConnect=0;portConstraint=eastwest;newEdgeStyle={&quot;curved&quot;:0,&quot;rounded&quot;:0};size=40;" vertex="1" parent="1">
          <mxGeometry x="505" y="210" width="200" height="360" as="geometry" />
        </mxCell>
        <mxCell id="vdRoEUMEjn4NhNGqWxLZ-8" value="" style="html=1;points=[[0,0,0,0,5],[0,1,0,0,-5],[1,0,0,0,5],[1,1,0,0,-5]];perimeter=orthogonalPerimeter;outlineConnect=0;targetShapes=umlLifeline;portConstraint=eastwest;newEdgeStyle={&quot;curved&quot;:0,&quot;rounded&quot;:0};" vertex="1" parent="vdRoEUMEjn4NhNGqWxLZ-7">
          <mxGeometry x="95" y="70" width="10" height="260" as="geometry" />
        </mxCell>
        <mxCell id="vdRoEUMEjn4NhNGqWxLZ-9" value="visit(b, &lt;span style=&quot;background-color: light-dark(#FFFF66,var(--ge-dark-color, #121212));&quot;&gt;m: mushroom&lt;/span&gt;)" style="html=1;verticalAlign=bottom;endArrow=block;curved=0;rounded=0;" edge="1" parent="1">
          <mxGeometry relative="1" as="geometry">
            <mxPoint x="325" y="290" as="sourcePoint" />
            <mxPoint x="599.9999999999998" y="290" as="targetPoint" />
          </mxGeometry>
        </mxCell>
        <mxCell id="vdRoEUMEjn4NhNGqWxLZ-10" value="&lt;span data-end=&quot;171&quot; data-start=&quot;144&quot;&gt;b: Fertile&lt;/span&gt;Tecton" style="shape=umlLifeline;perimeter=lifelinePerimeter;whiteSpace=wrap;html=1;container=1;dropTarget=0;collapsible=0;recursiveResize=0;outlineConnect=0;portConstraint=eastwest;newEdgeStyle={&quot;curved&quot;:0,&quot;rounded&quot;:0};size=40;" vertex="1" parent="1">
          <mxGeometry x="760" y="70" width="200" height="530" as="geometry" />
        </mxCell>
        <mxCell id="vdRoEUMEjn4NhNGqWxLZ-11" value="" style="html=1;points=[[0,0,0,0,5],[0,1,0,0,-5],[1,0,0,0,5],[1,1,0,0,-5]];perimeter=orthogonalPerimeter;outlineConnect=0;targetShapes=umlLifeline;portConstraint=eastwest;newEdgeStyle={&quot;curved&quot;:0,&quot;rounded&quot;:0};" vertex="1" parent="vdRoEUMEjn4NhNGqWxLZ-10">
          <mxGeometry x="95" y="230" width="10" height="210" as="geometry" />
        </mxCell>
        <mxCell id="vdRoEUMEjn4NhNGqWxLZ-12" value="accept(mge, m)" style="html=1;verticalAlign=bottom;endArrow=block;curved=0;rounded=0;" edge="1" parent="1" source="vdRoEUMEjn4NhNGqWxLZ-8" target="vdRoEUMEjn4NhNGqWxLZ-11">
          <mxGeometry x="-0.0023" relative="1" as="geometry">
            <mxPoint x="730" y="225" as="sourcePoint" />
            <Array as="points">
              <mxPoint x="740" y="310" />
            </Array>
            <mxPoint as="offset" />
          </mxGeometry>
        </mxCell>
        <mxCell id="vdRoEUMEjn4NhNGqWxLZ-13" value="" style="html=1;verticalAlign=bottom;endArrow=open;dashed=1;endSize=8;curved=0;rounded=0;" edge="1" parent="1">
          <mxGeometry relative="1" as="geometry">
            <mxPoint x="609.9999999999998" y="360" as="targetPoint" />
            <mxPoint x="854.9999999999998" y="360" as="sourcePoint" />
            <Array as="points">
              <mxPoint x="730" y="360" />
            </Array>
          </mxGeometry>
        </mxCell>
        <mxCell id="vdRoEUMEjn4NhNGqWxLZ-15" value="" style="html=1;verticalAlign=bottom;endArrow=open;dashed=1;endSize=8;curved=0;rounded=0;" edge="1" parent="1">
          <mxGeometry relative="1" as="geometry">
            <mxPoint x="854.9999999999998" y="479" as="targetPoint" />
            <mxPoint x="325" y="479" as="sourcePoint" />
            <Array as="points">
              <mxPoint x="590" y="479" />
            </Array>
          </mxGeometry>
        </mxCell>
        <mxCell id="vdRoEUMEjn4NhNGqWxLZ-16" value="" style="html=1;verticalAlign=bottom;endArrow=open;dashed=1;endSize=8;curved=0;rounded=0;" edge="1" parent="1">
          <mxGeometry relative="1" as="geometry">
            <mxPoint x="325" y="400" as="targetPoint" />
            <mxPoint x="599.9999999999998" y="400" as="sourcePoint" />
          </mxGeometry>
        </mxCell>
        <mxCell id="vdRoEUMEjn4NhNGqWxLZ-17" value="Create" style="endArrow=open;endSize=12;dashed=1;html=1;rounded=0;" edge="1" parent="1" source="vdRoEUMEjn4NhNGqWxLZ-5">
          <mxGeometry x="-0.0256" width="160" relative="1" as="geometry">
            <mxPoint x="322" y="230" as="sourcePoint" />
            <mxPoint x="506" y="230" as="targetPoint" />
            <mxPoint as="offset" />
          </mxGeometry>
        </mxCell>
        <mxCell id="vdRoEUMEjn4NhNGqWxLZ-18" value="" style="shape=umlDestroy;whiteSpace=wrap;html=1;strokeWidth=3;targetShapes=umlLifeline;" vertex="1" parent="1">
          <mxGeometry x="590" y="555" width="30" height="30" as="geometry" />
        </mxCell>
        <mxCell id="9NIszx1WM2RWWHkWkJNd-20" value="delete()" style="html=1;verticalAlign=bottom;endArrow=block;curved=0;rounded=0;" edge="1" parent="1">
          <mxGeometry x="-0.0377" relative="1" as="geometry">
            <mxPoint x="850" y="440" as="sourcePoint" />
            <mxPoint x="320" y="440" as="targetPoint" />
            <Array as="points">
              <mxPoint x="595" y="440" />
            </Array>
            <mxPoint as="offset" />
          </mxGeometry>
        </mxCell>
        <mxCell id="9NIszx1WM2RWWHkWkJNd-21" value="" style="shape=umlDestroy;whiteSpace=wrap;html=1;strokeWidth=3;targetShapes=umlLifeline;" vertex="1" parent="1">
          <mxGeometry x="305" y="600" width="30" height="30" as="geometry" />
        </mxCell>
      </root>
    </mxGraphModel>
  </diagram>
  <diagram id="MhcsMtIXQ470mIk18Ebm" name="UseCase3Seq">
    <mxGraphModel dx="1500" dy="746" grid="1" gridSize="10" guides="1" tooltips="1" connect="1" arrows="1" fold="1" page="1" pageScale="1" pageWidth="827" pageHeight="1169" math="0" shadow="0">
      <root>
        <mxCell id="0" />
        <mxCell id="1" parent="0" />
        <mxCell id="nrXzl7PbESOV5t3C7VOz-1" value="" style="shape=umlLifeline;perimeter=lifelinePerimeter;whiteSpace=wrap;html=1;container=1;dropTarget=0;collapsible=0;recursiveResize=0;outlineConnect=0;portConstraint=eastwest;newEdgeStyle={&quot;curved&quot;:0,&quot;rounded&quot;:0};size=0;" vertex="1" parent="1">
          <mxGeometry x="10" y="130" width="100" height="470" as="geometry" />
        </mxCell>
        <mxCell id="nrXzl7PbESOV5t3C7VOz-2" value="" style="html=1;points=[[0,0,0,0,5],[0,1,0,0,-5],[1,0,0,0,5],[1,1,0,0,-5]];perimeter=orthogonalPerimeter;outlineConnect=0;targetShapes=umlLifeline;portConstraint=eastwest;newEdgeStyle={&quot;curved&quot;:0,&quot;rounded&quot;:0};" vertex="1" parent="nrXzl7PbESOV5t3C7VOz-1">
          <mxGeometry x="45" y="10" width="10" height="430" as="geometry" />
        </mxCell>
        <mxCell id="nrXzl7PbESOV5t3C7VOz-3" value="&lt;span style=&quot;background-color: rgb(255, 255, 51);&quot;&gt;Controller&lt;/span&gt;" style="shape=umlActor;verticalLabelPosition=bottom;verticalAlign=top;html=1;" vertex="1" parent="1">
          <mxGeometry x="45" y="40" width="30" height="60" as="geometry" />
        </mxCell>
        <mxCell id="nrXzl7PbESOV5t3C7VOz-4" value="m: Mycelium" style="shape=umlLifeline;perimeter=lifelinePerimeter;whiteSpace=wrap;html=1;container=1;dropTarget=0;collapsible=0;recursiveResize=0;outlineConnect=0;portConstraint=eastwest;newEdgeStyle={&quot;curved&quot;:0,&quot;rounded&quot;:0};size=40;" vertex="1" parent="1">
          <mxGeometry x="260" y="135" width="120" height="465" as="geometry" />
        </mxCell>
        <mxCell id="nrXzl7PbESOV5t3C7VOz-5" value="" style="html=1;points=[[0,0,0,0,5],[0,1,0,0,-5],[1,0,0,0,5],[1,1,0,0,-5]];perimeter=orthogonalPerimeter;outlineConnect=0;targetShapes=umlLifeline;portConstraint=eastwest;newEdgeStyle={&quot;curved&quot;:0,&quot;rounded&quot;:0};" vertex="1" parent="nrXzl7PbESOV5t3C7VOz-4">
          <mxGeometry x="55" y="60" width="10" height="380" as="geometry" />
        </mxCell>
        <mxCell id="nrXzl7PbESOV5t3C7VOz-6" value="&lt;span style=&quot;background-color: light-dark(#FFFF33,var(--ge-dark-color, #121212));&quot;&gt;Create&lt;/span&gt;" style="endArrow=open;endSize=12;dashed=1;html=1;rounded=0;" edge="1" parent="1" source="nrXzl7PbESOV5t3C7VOz-2">
          <mxGeometry x="-0.0256" width="160" relative="1" as="geometry">
            <mxPoint x="70" y="150" as="sourcePoint" />
            <mxPoint x="260" y="150" as="targetPoint" />
            <mxPoint as="offset" />
          </mxGeometry>
        </mxCell>
        <mxCell id="nrXzl7PbESOV5t3C7VOz-7" value="&lt;span data-end=&quot;171&quot; data-start=&quot;144&quot;&gt;mge: MyceliumGrowthEvaluator&lt;/span&gt; " style="shape=umlLifeline;perimeter=lifelinePerimeter;whiteSpace=wrap;html=1;container=1;dropTarget=0;collapsible=0;recursiveResize=0;outlineConnect=0;portConstraint=eastwest;newEdgeStyle={&quot;curved&quot;:0,&quot;rounded&quot;:0};size=40;" vertex="1" parent="1">
          <mxGeometry x="505" y="210" width="200" height="360" as="geometry" />
        </mxCell>
        <mxCell id="nrXzl7PbESOV5t3C7VOz-8" value="" style="html=1;points=[[0,0,0,0,5],[0,1,0,0,-5],[1,0,0,0,5],[1,1,0,0,-5]];perimeter=orthogonalPerimeter;outlineConnect=0;targetShapes=umlLifeline;portConstraint=eastwest;newEdgeStyle={&quot;curved&quot;:0,&quot;rounded&quot;:0};" vertex="1" parent="nrXzl7PbESOV5t3C7VOz-7">
          <mxGeometry x="95" y="70" width="10" height="260" as="geometry" />
        </mxCell>
        <mxCell id="nrXzl7PbESOV5t3C7VOz-9" value="visit(b, &lt;span style=&quot;background-color: light-dark(#FFFF66,var(--ge-dark-color, #121212));&quot;&gt;m: mushroom&lt;/span&gt;)" style="html=1;verticalAlign=bottom;endArrow=block;curved=0;rounded=0;" edge="1" parent="1">
          <mxGeometry relative="1" as="geometry">
            <mxPoint x="325" y="290" as="sourcePoint" />
            <mxPoint x="599.9999999999998" y="290" as="targetPoint" />
          </mxGeometry>
        </mxCell>
        <mxCell id="nrXzl7PbESOV5t3C7VOz-10" value="&lt;span data-end=&quot;171&quot; data-start=&quot;144&quot;&gt;b: SemiFertile&lt;/span&gt;Tecton" style="shape=umlLifeline;perimeter=lifelinePerimeter;whiteSpace=wrap;html=1;container=1;dropTarget=0;collapsible=0;recursiveResize=0;outlineConnect=0;portConstraint=eastwest;newEdgeStyle={&quot;curved&quot;:0,&quot;rounded&quot;:0};size=40;" vertex="1" parent="1">
          <mxGeometry x="760" y="70" width="200" height="530" as="geometry" />
        </mxCell>
        <mxCell id="nrXzl7PbESOV5t3C7VOz-11" value="" style="html=1;points=[[0,0,0,0,5],[0,1,0,0,-5],[1,0,0,0,5],[1,1,0,0,-5]];perimeter=orthogonalPerimeter;outlineConnect=0;targetShapes=umlLifeline;portConstraint=eastwest;newEdgeStyle={&quot;curved&quot;:0,&quot;rounded&quot;:0};" vertex="1" parent="nrXzl7PbESOV5t3C7VOz-10">
          <mxGeometry x="95" y="230" width="10" height="210" as="geometry" />
        </mxCell>
        <mxCell id="nrXzl7PbESOV5t3C7VOz-12" value="accept(mge, m)" style="html=1;verticalAlign=bottom;endArrow=block;curved=0;rounded=0;" edge="1" parent="1" source="nrXzl7PbESOV5t3C7VOz-8" target="nrXzl7PbESOV5t3C7VOz-11">
          <mxGeometry x="-0.0023" relative="1" as="geometry">
            <mxPoint x="730" y="225" as="sourcePoint" />
            <Array as="points">
              <mxPoint x="740" y="310" />
            </Array>
            <mxPoint as="offset" />
          </mxGeometry>
        </mxCell>
        <mxCell id="nrXzl7PbESOV5t3C7VOz-13" value="" style="html=1;verticalAlign=bottom;endArrow=open;dashed=1;endSize=8;curved=0;rounded=0;" edge="1" parent="1">
          <mxGeometry relative="1" as="geometry">
            <mxPoint x="609.9999999999998" y="480" as="targetPoint" />
            <mxPoint x="854.9999999999998" y="480" as="sourcePoint" />
            <Array as="points">
              <mxPoint x="730" y="480" />
            </Array>
          </mxGeometry>
        </mxCell>
        <mxCell id="nrXzl7PbESOV5t3C7VOz-14" value="&lt;span style=&quot;font-family: &amp;quot;Times New Roman&amp;quot;, serif; background: rgb(255, 255, 102);&quot;&gt;&lt;font style=&quot;font-size: 12px;&quot;&gt;grow(sporeCount: int)&lt;/font&gt;&lt;/span&gt;" style="html=1;verticalAlign=bottom;endArrow=block;curved=0;rounded=0;" edge="1" parent="1">
          <mxGeometry x="-0.0356" relative="1" as="geometry">
            <mxPoint x="854.9999999999998" y="384.66" as="sourcePoint" />
            <mxPoint x="325" y="384.66" as="targetPoint" />
            <Array as="points">
              <mxPoint x="600" y="384.66" />
            </Array>
            <mxPoint as="offset" />
          </mxGeometry>
        </mxCell>
        <mxCell id="nrXzl7PbESOV5t3C7VOz-15" value="" style="html=1;verticalAlign=bottom;endArrow=open;dashed=1;endSize=8;curved=0;rounded=0;" edge="1" parent="1">
          <mxGeometry relative="1" as="geometry">
            <mxPoint x="854.9999999999998" y="404.66" as="targetPoint" />
            <mxPoint x="325" y="404.66" as="sourcePoint" />
            <Array as="points">
              <mxPoint x="590" y="404.66" />
            </Array>
          </mxGeometry>
        </mxCell>
        <mxCell id="nrXzl7PbESOV5t3C7VOz-16" value="" style="html=1;verticalAlign=bottom;endArrow=open;dashed=1;endSize=8;curved=0;rounded=0;" edge="1" parent="1">
          <mxGeometry relative="1" as="geometry">
            <mxPoint x="325" y="510" as="targetPoint" />
            <mxPoint x="599.9999999999998" y="510" as="sourcePoint" />
          </mxGeometry>
        </mxCell>
        <mxCell id="nrXzl7PbESOV5t3C7VOz-17" value="Create" style="endArrow=open;endSize=12;dashed=1;html=1;rounded=0;" edge="1" parent="1" source="nrXzl7PbESOV5t3C7VOz-5">
          <mxGeometry x="-0.0256" width="160" relative="1" as="geometry">
            <mxPoint x="322" y="230" as="sourcePoint" />
            <mxPoint x="506" y="230" as="targetPoint" />
            <mxPoint as="offset" />
          </mxGeometry>
        </mxCell>
        <mxCell id="nrXzl7PbESOV5t3C7VOz-18" value="" style="shape=umlDestroy;whiteSpace=wrap;html=1;strokeWidth=3;targetShapes=umlLifeline;" vertex="1" parent="1">
          <mxGeometry x="590" y="555" width="30" height="30" as="geometry" />
        </mxCell>
      </root>
    </mxGraphModel>
  </diagram>
  <diagram id="FDrVtxyHMBqRU1mB2pqT" name="UseCase4Seq">
    <mxGraphModel dx="1235" dy="614" grid="1" gridSize="10" guides="1" tooltips="1" connect="1" arrows="1" fold="1" page="1" pageScale="1" pageWidth="827" pageHeight="1169" math="0" shadow="0">
      <root>
        <mxCell id="0" />
        <mxCell id="1" parent="0" />
        <mxCell id="vUsb-ePnzj4PL08RLLCD-1" value="" style="shape=umlLifeline;perimeter=lifelinePerimeter;whiteSpace=wrap;html=1;container=1;dropTarget=0;collapsible=0;recursiveResize=0;outlineConnect=0;portConstraint=eastwest;newEdgeStyle={&quot;curved&quot;:0,&quot;rounded&quot;:0};size=0;" vertex="1" parent="1">
          <mxGeometry x="30" y="150" width="100" height="470" as="geometry" />
        </mxCell>
        <mxCell id="vUsb-ePnzj4PL08RLLCD-2" value="" style="html=1;points=[[0,0,0,0,5],[0,1,0,0,-5],[1,0,0,0,5],[1,1,0,0,-5]];perimeter=orthogonalPerimeter;outlineConnect=0;targetShapes=umlLifeline;portConstraint=eastwest;newEdgeStyle={&quot;curved&quot;:0,&quot;rounded&quot;:0};" vertex="1" parent="vUsb-ePnzj4PL08RLLCD-1">
          <mxGeometry x="45" y="10" width="10" height="430" as="geometry" />
        </mxCell>
        <mxCell id="vUsb-ePnzj4PL08RLLCD-3" value="&lt;span style=&quot;background-color: rgb(255, 255, 51);&quot;&gt;Controller&lt;/span&gt;" style="shape=umlActor;verticalLabelPosition=bottom;verticalAlign=top;html=1;" vertex="1" parent="1">
          <mxGeometry x="65" y="60" width="30" height="60" as="geometry" />
        </mxCell>
        <mxCell id="vUsb-ePnzj4PL08RLLCD-4" value="m: Mycelium" style="shape=umlLifeline;perimeter=lifelinePerimeter;whiteSpace=wrap;html=1;container=1;dropTarget=0;collapsible=0;recursiveResize=0;outlineConnect=0;portConstraint=eastwest;newEdgeStyle={&quot;curved&quot;:0,&quot;rounded&quot;:0};size=40;" vertex="1" parent="1">
          <mxGeometry x="280" y="155" width="120" height="465" as="geometry" />
        </mxCell>
        <mxCell id="vUsb-ePnzj4PL08RLLCD-5" value="" style="html=1;points=[[0,0,0,0,5],[0,1,0,0,-5],[1,0,0,0,5],[1,1,0,0,-5]];perimeter=orthogonalPerimeter;outlineConnect=0;targetShapes=umlLifeline;portConstraint=eastwest;newEdgeStyle={&quot;curved&quot;:0,&quot;rounded&quot;:0};" vertex="1" parent="vUsb-ePnzj4PL08RLLCD-4">
          <mxGeometry x="55" y="60" width="10" height="380" as="geometry" />
        </mxCell>
        <mxCell id="vUsb-ePnzj4PL08RLLCD-6" value="&lt;span style=&quot;background-color: light-dark(#FFFF33,var(--ge-dark-color, #121212));&quot;&gt;Create&lt;/span&gt;" style="endArrow=open;endSize=12;dashed=1;html=1;rounded=0;" edge="1" parent="1" source="vUsb-ePnzj4PL08RLLCD-2">
          <mxGeometry x="-0.0256" width="160" relative="1" as="geometry">
            <mxPoint x="90" y="170" as="sourcePoint" />
            <mxPoint x="280" y="170" as="targetPoint" />
            <mxPoint as="offset" />
          </mxGeometry>
        </mxCell>
        <mxCell id="vUsb-ePnzj4PL08RLLCD-7" value="&lt;span data-end=&quot;171&quot; data-start=&quot;144&quot;&gt;mge: MyceliumGrowthEvaluator&lt;/span&gt; " style="shape=umlLifeline;perimeter=lifelinePerimeter;whiteSpace=wrap;html=1;container=1;dropTarget=0;collapsible=0;recursiveResize=0;outlineConnect=0;portConstraint=eastwest;newEdgeStyle={&quot;curved&quot;:0,&quot;rounded&quot;:0};size=40;" vertex="1" parent="1">
          <mxGeometry x="525" y="230" width="200" height="360" as="geometry" />
        </mxCell>
        <mxCell id="vUsb-ePnzj4PL08RLLCD-8" value="" style="html=1;points=[[0,0,0,0,5],[0,1,0,0,-5],[1,0,0,0,5],[1,1,0,0,-5]];perimeter=orthogonalPerimeter;outlineConnect=0;targetShapes=umlLifeline;portConstraint=eastwest;newEdgeStyle={&quot;curved&quot;:0,&quot;rounded&quot;:0};" vertex="1" parent="vUsb-ePnzj4PL08RLLCD-7">
          <mxGeometry x="95" y="70" width="10" height="260" as="geometry" />
        </mxCell>
        <mxCell id="vUsb-ePnzj4PL08RLLCD-9" value="visit(b, &lt;span style=&quot;background-color: light-dark(#FFFF66,var(--ge-dark-color, #121212));&quot;&gt;m: mushroom&lt;/span&gt;)" style="html=1;verticalAlign=bottom;endArrow=block;curved=0;rounded=0;" edge="1" parent="1">
          <mxGeometry relative="1" as="geometry">
            <mxPoint x="345" y="310" as="sourcePoint" />
            <mxPoint x="619.9999999999998" y="310" as="targetPoint" />
          </mxGeometry>
        </mxCell>
        <mxCell id="vUsb-ePnzj4PL08RLLCD-10" value="&lt;span data-end=&quot;171&quot; data-start=&quot;144&quot;&gt;b: SemiFertile&lt;/span&gt;Tecton" style="shape=umlLifeline;perimeter=lifelinePerimeter;whiteSpace=wrap;html=1;container=1;dropTarget=0;collapsible=0;recursiveResize=0;outlineConnect=0;portConstraint=eastwest;newEdgeStyle={&quot;curved&quot;:0,&quot;rounded&quot;:0};size=40;" vertex="1" parent="1">
          <mxGeometry x="780" y="90" width="200" height="530" as="geometry" />
        </mxCell>
        <mxCell id="vUsb-ePnzj4PL08RLLCD-11" value="" style="html=1;points=[[0,0,0,0,5],[0,1,0,0,-5],[1,0,0,0,5],[1,1,0,0,-5]];perimeter=orthogonalPerimeter;outlineConnect=0;targetShapes=umlLifeline;portConstraint=eastwest;newEdgeStyle={&quot;curved&quot;:0,&quot;rounded&quot;:0};" vertex="1" parent="vUsb-ePnzj4PL08RLLCD-10">
          <mxGeometry x="95" y="230" width="10" height="210" as="geometry" />
        </mxCell>
        <mxCell id="vUsb-ePnzj4PL08RLLCD-12" value="accept(mge, m)" style="html=1;verticalAlign=bottom;endArrow=block;curved=0;rounded=0;" edge="1" parent="1" source="vUsb-ePnzj4PL08RLLCD-8" target="vUsb-ePnzj4PL08RLLCD-11">
          <mxGeometry x="-0.0023" relative="1" as="geometry">
            <mxPoint x="750" y="245" as="sourcePoint" />
            <Array as="points">
              <mxPoint x="760" y="330" />
            </Array>
            <mxPoint as="offset" />
          </mxGeometry>
        </mxCell>
        <mxCell id="vUsb-ePnzj4PL08RLLCD-13" value="" style="html=1;verticalAlign=bottom;endArrow=open;dashed=1;endSize=8;curved=0;rounded=0;" edge="1" parent="1">
          <mxGeometry relative="1" as="geometry">
            <mxPoint x="629.9999999999998" y="380" as="targetPoint" />
            <mxPoint x="874.9999999999998" y="380" as="sourcePoint" />
            <Array as="points">
              <mxPoint x="750" y="380" />
            </Array>
          </mxGeometry>
        </mxCell>
        <mxCell id="vUsb-ePnzj4PL08RLLCD-14" value="" style="html=1;verticalAlign=bottom;endArrow=open;dashed=1;endSize=8;curved=0;rounded=0;" edge="1" parent="1">
          <mxGeometry relative="1" as="geometry">
            <mxPoint x="874.9999999999998" y="499" as="targetPoint" />
            <mxPoint x="345" y="499" as="sourcePoint" />
            <Array as="points">
              <mxPoint x="610" y="499" />
            </Array>
          </mxGeometry>
        </mxCell>
        <mxCell id="vUsb-ePnzj4PL08RLLCD-15" value="" style="html=1;verticalAlign=bottom;endArrow=open;dashed=1;endSize=8;curved=0;rounded=0;" edge="1" parent="1">
          <mxGeometry relative="1" as="geometry">
            <mxPoint x="345" y="420" as="targetPoint" />
            <mxPoint x="619.9999999999998" y="420" as="sourcePoint" />
          </mxGeometry>
        </mxCell>
        <mxCell id="vUsb-ePnzj4PL08RLLCD-16" value="Create" style="endArrow=open;endSize=12;dashed=1;html=1;rounded=0;" edge="1" parent="1" source="vUsb-ePnzj4PL08RLLCD-5">
          <mxGeometry x="-0.0256" width="160" relative="1" as="geometry">
            <mxPoint x="342" y="250" as="sourcePoint" />
            <mxPoint x="526" y="250" as="targetPoint" />
            <mxPoint as="offset" />
          </mxGeometry>
        </mxCell>
        <mxCell id="vUsb-ePnzj4PL08RLLCD-17" value="" style="shape=umlDestroy;whiteSpace=wrap;html=1;strokeWidth=3;targetShapes=umlLifeline;" vertex="1" parent="1">
          <mxGeometry x="610" y="575" width="30" height="30" as="geometry" />
        </mxCell>
        <mxCell id="vUsb-ePnzj4PL08RLLCD-18" value="delete()" style="html=1;verticalAlign=bottom;endArrow=block;curved=0;rounded=0;" edge="1" parent="1">
          <mxGeometry x="-0.0377" relative="1" as="geometry">
            <mxPoint x="870" y="460" as="sourcePoint" />
            <mxPoint x="340" y="460" as="targetPoint" />
            <Array as="points">
              <mxPoint x="615" y="460" />
            </Array>
            <mxPoint as="offset" />
          </mxGeometry>
        </mxCell>
        <mxCell id="vUsb-ePnzj4PL08RLLCD-19" value="" style="shape=umlDestroy;whiteSpace=wrap;html=1;strokeWidth=3;targetShapes=umlLifeline;" vertex="1" parent="1">
          <mxGeometry x="325" y="620" width="30" height="30" as="geometry" />
        </mxCell>
      </root>
    </mxGraphModel>
  </diagram>
  <diagram id="_SphBwuG8N6HTP2GEo0e" name="UseCase5Seq">
    <mxGraphModel dx="1500" dy="746" grid="1" gridSize="10" guides="1" tooltips="1" connect="1" arrows="1" fold="1" page="1" pageScale="1" pageWidth="827" pageHeight="1169" math="0" shadow="0">
      <root>
        <mxCell id="0" />
        <mxCell id="1" parent="0" />
        <mxCell id="eXDpSWG0kluzvF-0udNZ-1" value="" style="shape=umlLifeline;perimeter=lifelinePerimeter;whiteSpace=wrap;html=1;container=1;dropTarget=0;collapsible=0;recursiveResize=0;outlineConnect=0;portConstraint=eastwest;newEdgeStyle={&quot;curved&quot;:0,&quot;rounded&quot;:0};size=0;" vertex="1" parent="1">
          <mxGeometry x="10" y="130" width="100" height="470" as="geometry" />
        </mxCell>
        <mxCell id="eXDpSWG0kluzvF-0udNZ-2" value="" style="html=1;points=[[0,0,0,0,5],[0,1,0,0,-5],[1,0,0,0,5],[1,1,0,0,-5]];perimeter=orthogonalPerimeter;outlineConnect=0;targetShapes=umlLifeline;portConstraint=eastwest;newEdgeStyle={&quot;curved&quot;:0,&quot;rounded&quot;:0};" vertex="1" parent="eXDpSWG0kluzvF-0udNZ-1">
          <mxGeometry x="45" y="10" width="10" height="430" as="geometry" />
        </mxCell>
        <mxCell id="eXDpSWG0kluzvF-0udNZ-3" value="&lt;span style=&quot;background-color: rgb(255, 255, 51);&quot;&gt;Controller&lt;/span&gt;" style="shape=umlActor;verticalLabelPosition=bottom;verticalAlign=top;html=1;" vertex="1" parent="1">
          <mxGeometry x="45" y="40" width="30" height="60" as="geometry" />
        </mxCell>
        <mxCell id="eXDpSWG0kluzvF-0udNZ-4" value="m: Mycelium" style="shape=umlLifeline;perimeter=lifelinePerimeter;whiteSpace=wrap;html=1;container=1;dropTarget=0;collapsible=0;recursiveResize=0;outlineConnect=0;portConstraint=eastwest;newEdgeStyle={&quot;curved&quot;:0,&quot;rounded&quot;:0};size=40;" vertex="1" parent="1">
          <mxGeometry x="260" y="135" width="120" height="465" as="geometry" />
        </mxCell>
        <mxCell id="eXDpSWG0kluzvF-0udNZ-5" value="" style="html=1;points=[[0,0,0,0,5],[0,1,0,0,-5],[1,0,0,0,5],[1,1,0,0,-5]];perimeter=orthogonalPerimeter;outlineConnect=0;targetShapes=umlLifeline;portConstraint=eastwest;newEdgeStyle={&quot;curved&quot;:0,&quot;rounded&quot;:0};" vertex="1" parent="eXDpSWG0kluzvF-0udNZ-4">
          <mxGeometry x="55" y="60" width="10" height="380" as="geometry" />
        </mxCell>
        <mxCell id="eXDpSWG0kluzvF-0udNZ-6" value="&lt;span style=&quot;background-color: light-dark(#FFFF33,var(--ge-dark-color, #121212));&quot;&gt;Create&lt;/span&gt;" style="endArrow=open;endSize=12;dashed=1;html=1;rounded=0;" edge="1" parent="1" source="eXDpSWG0kluzvF-0udNZ-2">
          <mxGeometry x="-0.0256" width="160" relative="1" as="geometry">
            <mxPoint x="70" y="150" as="sourcePoint" />
            <mxPoint x="260" y="150" as="targetPoint" />
            <mxPoint as="offset" />
          </mxGeometry>
        </mxCell>
        <mxCell id="eXDpSWG0kluzvF-0udNZ-7" value="&lt;span data-end=&quot;171&quot; data-start=&quot;144&quot;&gt;mge: MyceliumGrowthEvaluator&lt;/span&gt; " style="shape=umlLifeline;perimeter=lifelinePerimeter;whiteSpace=wrap;html=1;container=1;dropTarget=0;collapsible=0;recursiveResize=0;outlineConnect=0;portConstraint=eastwest;newEdgeStyle={&quot;curved&quot;:0,&quot;rounded&quot;:0};size=40;" vertex="1" parent="1">
          <mxGeometry x="505" y="210" width="200" height="360" as="geometry" />
        </mxCell>
        <mxCell id="eXDpSWG0kluzvF-0udNZ-8" value="" style="html=1;points=[[0,0,0,0,5],[0,1,0,0,-5],[1,0,0,0,5],[1,1,0,0,-5]];perimeter=orthogonalPerimeter;outlineConnect=0;targetShapes=umlLifeline;portConstraint=eastwest;newEdgeStyle={&quot;curved&quot;:0,&quot;rounded&quot;:0};" vertex="1" parent="eXDpSWG0kluzvF-0udNZ-7">
          <mxGeometry x="95" y="70" width="10" height="260" as="geometry" />
        </mxCell>
        <mxCell id="eXDpSWG0kluzvF-0udNZ-9" value="visit(b, &lt;span style=&quot;background-color: light-dark(#FFFF66,var(--ge-dark-color, #121212));&quot;&gt;m: mushroom&lt;/span&gt;)" style="html=1;verticalAlign=bottom;endArrow=block;curved=0;rounded=0;" edge="1" parent="1">
          <mxGeometry relative="1" as="geometry">
            <mxPoint x="325" y="290" as="sourcePoint" />
            <mxPoint x="599.9999999999998" y="290" as="targetPoint" />
          </mxGeometry>
        </mxCell>
        <mxCell id="eXDpSWG0kluzvF-0udNZ-10" value="&lt;span data-end=&quot;171&quot; data-start=&quot;144&quot;&gt;b: Arid&lt;/span&gt;Tecton" style="shape=umlLifeline;perimeter=lifelinePerimeter;whiteSpace=wrap;html=1;container=1;dropTarget=0;collapsible=0;recursiveResize=0;outlineConnect=0;portConstraint=eastwest;newEdgeStyle={&quot;curved&quot;:0,&quot;rounded&quot;:0};size=40;" vertex="1" parent="1">
          <mxGeometry x="760" y="70" width="200" height="530" as="geometry" />
        </mxCell>
        <mxCell id="eXDpSWG0kluzvF-0udNZ-11" value="" style="html=1;points=[[0,0,0,0,5],[0,1,0,0,-5],[1,0,0,0,5],[1,1,0,0,-5]];perimeter=orthogonalPerimeter;outlineConnect=0;targetShapes=umlLifeline;portConstraint=eastwest;newEdgeStyle={&quot;curved&quot;:0,&quot;rounded&quot;:0};" vertex="1" parent="eXDpSWG0kluzvF-0udNZ-10">
          <mxGeometry x="95" y="230" width="10" height="210" as="geometry" />
        </mxCell>
        <mxCell id="eXDpSWG0kluzvF-0udNZ-12" value="accept(mge, m)" style="html=1;verticalAlign=bottom;endArrow=block;curved=0;rounded=0;" edge="1" parent="1" source="eXDpSWG0kluzvF-0udNZ-8" target="eXDpSWG0kluzvF-0udNZ-11">
          <mxGeometry x="-0.0023" relative="1" as="geometry">
            <mxPoint x="730" y="225" as="sourcePoint" />
            <Array as="points">
              <mxPoint x="740" y="310" />
            </Array>
            <mxPoint as="offset" />
          </mxGeometry>
        </mxCell>
        <mxCell id="eXDpSWG0kluzvF-0udNZ-13" value="" style="html=1;verticalAlign=bottom;endArrow=open;dashed=1;endSize=8;curved=0;rounded=0;" edge="1" parent="1">
          <mxGeometry relative="1" as="geometry">
            <mxPoint x="609.9999999999998" y="480" as="targetPoint" />
            <mxPoint x="854.9999999999998" y="480" as="sourcePoint" />
            <Array as="points">
              <mxPoint x="730" y="480" />
            </Array>
          </mxGeometry>
        </mxCell>
        <mxCell id="eXDpSWG0kluzvF-0udNZ-14" value="&lt;span style=&quot;font-family: &amp;quot;Times New Roman&amp;quot;, serif; background: rgb(255, 255, 102);&quot;&gt;&lt;font style=&quot;font-size: 12px;&quot;&gt;grow(sporeCount: int)&lt;/font&gt;&lt;/span&gt;" style="html=1;verticalAlign=bottom;endArrow=block;curved=0;rounded=0;" edge="1" parent="1">
          <mxGeometry x="-0.0356" relative="1" as="geometry">
            <mxPoint x="854.9999999999998" y="384.66" as="sourcePoint" />
            <mxPoint x="325" y="384.66" as="targetPoint" />
            <Array as="points">
              <mxPoint x="600" y="384.66" />
            </Array>
            <mxPoint as="offset" />
          </mxGeometry>
        </mxCell>
        <mxCell id="eXDpSWG0kluzvF-0udNZ-15" value="" style="html=1;verticalAlign=bottom;endArrow=open;dashed=1;endSize=8;curved=0;rounded=0;" edge="1" parent="1">
          <mxGeometry relative="1" as="geometry">
            <mxPoint x="854.9999999999998" y="404.66" as="targetPoint" />
            <mxPoint x="325" y="404.66" as="sourcePoint" />
            <Array as="points">
              <mxPoint x="590" y="404.66" />
            </Array>
          </mxGeometry>
        </mxCell>
        <mxCell id="eXDpSWG0kluzvF-0udNZ-16" value="" style="html=1;verticalAlign=bottom;endArrow=open;dashed=1;endSize=8;curved=0;rounded=0;" edge="1" parent="1">
          <mxGeometry relative="1" as="geometry">
            <mxPoint x="325" y="510" as="targetPoint" />
            <mxPoint x="599.9999999999998" y="510" as="sourcePoint" />
          </mxGeometry>
        </mxCell>
        <mxCell id="eXDpSWG0kluzvF-0udNZ-17" value="Create" style="endArrow=open;endSize=12;dashed=1;html=1;rounded=0;" edge="1" parent="1" source="eXDpSWG0kluzvF-0udNZ-5">
          <mxGeometry x="-0.0256" width="160" relative="1" as="geometry">
            <mxPoint x="322" y="230" as="sourcePoint" />
            <mxPoint x="506" y="230" as="targetPoint" />
            <mxPoint as="offset" />
          </mxGeometry>
        </mxCell>
        <mxCell id="eXDpSWG0kluzvF-0udNZ-18" value="" style="shape=umlDestroy;whiteSpace=wrap;html=1;strokeWidth=3;targetShapes=umlLifeline;" vertex="1" parent="1">
          <mxGeometry x="590" y="555" width="30" height="30" as="geometry" />
        </mxCell>
      </root>
    </mxGraphModel>
  </diagram>
</mxfile>
